<svg xmlns="http://www.w3.org/2000/svg" viewBox="0 0 24 24">
    <path d="M12 2c5.514 0 10 4.486 10 10s-4.486 10-10 10S2 17.514 2 12 6.486 2 12 2zm0-2C5.373 0 0 5.373 0 12s5.373 12 12 12 12-5.373 12-12S18.627 0 12 0zm0 14c-2.33 0-4.144 1.636-5.092 2.797l.47.58c1.287-.82 2.733-1.308 4.623-1.308s3.337.488 4.623 1.307l.47-.58c-.947-1.16-2.76-2.797-5.092-2.797zM8.5 8C7.672 8 7 8.67 7 9.5S7.672 11 8.5 11s1.5-.67 1.5-1.5S9.328 8 8.5 8zm7 0c-.828 0-1.5.67-1.5 1.5s.672 1.5 1.5 1.5 1.5-.67 1.5-1.5S16.328 8 15.5 8z"/>
</svg>