<svg xmlns="http://www.w3.org/2000/svg" viewBox="0 0 24 24">
    <path d="M12 2c5.514 0 10 4.486 10 10s-4.486 10-10 10S2 17.514 2 12 6.486 2 12 2zm0-2C5.373 0 0 5.373 0 12s5.373 12 12 12 12-5.373 12-12S18.627 0 12 0zm5.507 13.94c-1.512 1.196-3.174 1.932-5.506 1.932-2.333 0-3.995-.736-5.507-1.93L6 14.433C7.127 16.154 9.2 18 12 18s4.873-1.846 6-3.566l-.493-.493zM8.5 8C7.672 8 7 8.67 7 9.5S7.672 11 8.5 11s1.5-.67 1.5-1.5S9.328 8 8.5 8zm7 0c-.828 0-1.5.67-1.5 1.5s.672 1.5 1.5 1.5 1.5-.67 1.5-1.5S16.328 8 15.5 8z"/>
</svg>