<svg xmlns="http://www.w3.org/2000/svg" viewBox="0 0 24 24"><path fill="none" d="M0 0h24v24H0V0z"/><g><path d="M11.57 13.16c-1.36.28-2.17 1.16-2.17 2.41a2.45 2.45 0 0 0 2.49 2.42 3.7 3.7 0 0 0 3.71-3.71c0-1.07-.15-2.12-.46-3.12-.79 1.07-2.2 1.72-3.57 2z"/><path d="M13.5.67s.74 2.65.74 4.8c0 2.06-1.35 3.73-3.41 3.73A3.64 3.64 0 0 1 7.2 5.47l.03-.36A13.77 13.77 0 0 0 4 14a8 8 0 1 0 16 0C20 8.61 17.41 3.8 13.5.67zM12 20a6 6 0 0 1-6-6c0-1.53.3-3.04.86-4.43a5.58 5.58 0 0 0 3.97 1.63 5.34 5.34 0 0 0 5.28-4.43A14.77 14.77 0 0 1 18 14a6 6 0 0 1-6 6z"/></g></svg>