<svg xmlns="http://www.w3.org/2000/svg" id="Ebene_1" viewBox="0 0 284 279"><style>.st25{fill:#09498a}</style><linearGradient id="SVGID_1_" x1="138.1" x2="138.1" y1="208.8" y2="178" gradientUnits="userSpaceOnUse"><stop offset="0" stop-color="#09498a"/><stop offset="1" stop-color="#6088b1"/></linearGradient><path fill="url(#SVGID_1_)" d="M146.2 198.9c4 1.3 6.8 2.8 9.3 3.8 4.7 1.8 2.5 2.3 1.8 3.2-1 1-1.1 2.9-3.8 1.5-2.7-.6-5.4-1.9-7.8-3.4-4.9-3-9.4-2.5-14.1.2l-5.7 3c-4.8 2.8-4.6 1.4-6.7-3.5l12.1-4.5c-7.8-2.1-13.8-5.9-20.9-.9-4.6 3.3-10.1 2.6-16.4-.6l12.9-6.3-3.8-12.7.6-.4a18 18 0 0 1 10.2 8.3c3.1 2.6 6.2 6.1 9.8 6.9 7.4 1.5 6.8 3.7 16.2 2.6 12.5-.3 17.9-4.4 21.8-9.8 2.4-3.4 2.6-6.1 9.8-8.4l.6.4-5.1 13 14.9 4.8c-7 4.6-13.5 4-19.8 1-5.1-2.3-9.8-1.2-15.9 1.8z"/><linearGradient id="SVGID_2_" x1="196.7" x2="196.7" y1="181.7" y2="161.5" gradientUnits="userSpaceOnUse"><stop offset="0" stop-color="#09498a"/><stop offset="1" stop-color="#6088b1"/></linearGradient><path fill="url(#SVGID_2_)" d="M194.6 161.5c.9 4.3.4 9 2.6 10.8 2.4 2.1 7.1 1.7 12 2.6-8 6-15.5 8.1-24.9 5.9 2.8-7 4.2-14.3 10.3-19.3z"/><linearGradient id="SVGID_3_" x1="91.9" x2="91.9" y1="193.2" y2="170.9" gradientUnits="userSpaceOnUse"><stop offset="0" stop-color="#09498a"/><stop offset="1" stop-color="#6088b1"/></linearGradient><path fill="url(#SVGID_3_)" d="M79.6 188.9l13.9-3.5-1.9-14.5c7.3 5.1 9.3 12.1 12.5 18.5-10.4 5.2-19.4 5.1-24.5-.5z"/><linearGradient id="SVGID_4_" x1="79.2" x2="79.2" y1="183.3" y2="162.7" gradientUnits="userSpaceOnUse"><stop offset="0" stop-color="#09498a"/><stop offset="1" stop-color="#6088b1"/></linearGradient><path fill="url(#SVGID_4_)" d="M81.5 162.7c6.4 4.7 6.5 12.4 9.3 18.9-10.1 3.4-19.2 1.8-23.1-4.2l13.6-1.8-1.3-12.5 1.5-.4z"/><linearGradient id="SVGID_5_" x1="182.7" x2="182.7" y1="192.6" y2="171.2" gradientUnits="userSpaceOnUse"><stop offset="0" stop-color="#09498a"/><stop offset="1" stop-color="#6088b1"/></linearGradient><path fill="url(#SVGID_5_)" d="M171.4 189.1c2.2-8.4 6.1-14.6 11.7-17.9-.4 3.2-.6 5.9-1.1 8.5-.7 3.7.6 5.6 4.3 6.2 2.6.4 5.1 1 7.7 1.5-4 6.5-13.2 6.7-22.6 1.7z"/><linearGradient id="SVGID_6_" x1="208.1" x2="208.1" y1="170.7" y2="147.8" gradientUnits="userSpaceOnUse"><stop offset="0" stop-color="#09498a"/><stop offset="1" stop-color="#6088b1"/></linearGradient><path fill="url(#SVGID_6_)" d="M205.9 147.8l2.4 14.1 9.6-1.3c-3.1 8.1-10.8 12.5-19.6 9 2-7 1.8-14.7 7.6-21.8z"/><linearGradient id="SVGID_7_" x1="68" x2="68" y1="173.1" y2="151.6" gradientUnits="userSpaceOnUse"><stop offset="0" stop-color="#09498a"/><stop offset="1" stop-color="#6088b1"/></linearGradient><path fill="url(#SVGID_7_)" d="M78.7 173.1c-9-.5-16.3-2.3-21.4-10.2l11.1.9 2.1-12.2c6.1 6.7 5.3 14.4 8.2 21.5z"/><linearGradient id="SVGID_8_" x1="228" x2="228" y1="116.7" y2="94.4" gradientUnits="userSpaceOnUse"><stop offset="0" stop-color="#09498a"/><stop offset="1" stop-color="#6088b1"/></linearGradient><path fill="url(#SVGID_8_)" d="M227.6 116.7a29.3 29.3 0 0 1-7.2-22.2l8.6 10.2 6.3-8.2c1.7 8.4-1.7 14.4-7.7 20.2z"/><linearGradient id="SVGID_9_" x1="203" x2="203" y1="55.4" y2="34.3" gradientUnits="userSpaceOnUse"><stop offset="0" stop-color="#09498a"/><stop offset="1" stop-color="#6088b1"/></linearGradient><path fill="url(#SVGID_9_)" d="M193.9 44.8l10.4 2.7 1.9-13.2c4.5 5.5 7 11.5 5.5 18.3-.3 1.2-2.7 2.9-4 2.8-8.6-.5-12.2-3.2-13.8-10.6z"/><linearGradient id="SVGID_10_" x1="51.7" x2="51.7" y1="147.3" y2="126.5" gradientUnits="userSpaceOnUse"><stop offset="0" stop-color="#09498a"/><stop offset="1" stop-color="#6088b1"/></linearGradient><path fill="url(#SVGID_10_)" d="M57.3 147.3c-11.7-5.4-13.7-7.4-14.7-15.7l10.9 5.3 5-10.5c3.5 4.6 3.1 12.8-1.2 20.9z"/><linearGradient id="SVGID_11_" x1="71.3" x2="71.3" y1="58" y2="36" gradientUnits="userSpaceOnUse"><stop offset="0" stop-color="#09498a"/><stop offset="1" stop-color="#6088b1"/></linearGradient><path fill="url(#SVGID_11_)" d="M69.7 49.2l11-1.6C76.8 55.5 70 56.8 62.5 58a28.4 28.4 0 0 1 3.9-22l3.3 13.2z"/><linearGradient id="SVGID_12_" x1="53.7" x2="53.7" y1="84.8" y2="61.8" gradientUnits="userSpaceOnUse"><stop offset="0" stop-color="#09498a"/><stop offset="1" stop-color="#6088b1"/></linearGradient><path fill="url(#SVGID_12_)" d="M52.9 73.2l9.7-2.6c-1.4 5.4-6 9.9-14.7 14.2-4.7-7.1-3.3-14.3-.2-23l5.2 11.4z"/><linearGradient id="SVGID_13_" x1="219.7" x2="219.7" y1="80.4" y2="58.4" gradientUnits="userSpaceOnUse"><stop offset="0" stop-color="#09498a"/><stop offset="1" stop-color="#6088b1"/></linearGradient><path fill="url(#SVGID_13_)" d="M226 80.4c-5.5-4.4-13.6-4.8-15.6-13.8l10.9 2.2 3.8-10.3c3.8 7.6 6.2 14.2.9 21.9z"/><linearGradient id="SVGID_14_" x1="56.6" x2="56.6" y1="159.9" y2="137.7" gradientUnits="userSpaceOnUse"><stop offset="0" stop-color="#09498a"/><stop offset="1" stop-color="#6088b1"/></linearGradient><path fill="url(#SVGID_14_)" d="M64.4 137.7c5.2 7.9-1 14.7 1 22.2-8.2-2-14.9-4.4-18.7-12.2L59 150l5.4-12.3z"/><linearGradient id="SVGID_15_" x1="219.7" x2="219.7" y1="157.8" y2="135.7" gradientUnits="userSpaceOnUse"><stop offset="0" stop-color="#09498a"/><stop offset="1" stop-color="#6088b1"/></linearGradient><path fill="url(#SVGID_15_)" d="M212 157.8c-2.1-7.4-3.8-14.1.4-22.1l4.5 11.7 12.9-2.7c-3.9 8.2-10.6 10.3-17.8 13.1z"/><linearGradient id="SVGID_16_" x1="223.9" x2="223.9" y1="143.3" y2="124.4" gradientUnits="userSpaceOnUse"><stop offset="0" stop-color="#09498a"/><stop offset="1" stop-color="#6088b1"/></linearGradient><path fill="url(#SVGID_16_)" d="M216.7 124.4l6.6 9.6 9.1-5.6c0 8-4.2 13.6-11 14.9-1.1.2-3.3-.3-3.6-1.1-2.1-5.5-3.9-11.2-1.1-17.8z"/><linearGradient id="SVGID_17_" x1="47.4" x2="47.4" y1="133.4" y2="111.8" gradientUnits="userSpaceOnUse"><stop offset="0" stop-color="#09498a"/><stop offset="1" stop-color="#6088b1"/></linearGradient><path fill="url(#SVGID_17_)" d="M38.1 113.8l9.9 7.4 6.9-9.4 1.4.5c2 7.6-4.2 13.4-5.6 21-5.5-5.6-12.8-9-12.6-19.5z"/><linearGradient id="SVGID_18_" x1="49.4" x2="49.4" y1="100.8" y2="80.5" gradientUnits="userSpaceOnUse"><stop offset="0" stop-color="#09498a"/><stop offset="1" stop-color="#6088b1"/></linearGradient><path fill="url(#SVGID_18_)" d="M58.6 82.1c-1.5 9.2-8.6 12.7-12.4 18.6a19.9 19.9 0 0 1-4.9-20.3l5.8 7.9 11.5-6.2z"/><linearGradient id="SVGID_19_" x1="224.8" x2="224.8" y1="98.3" y2="78.3" gradientUnits="userSpaceOnUse"><stop offset="0" stop-color="#09498a"/><stop offset="1" stop-color="#6088b1"/></linearGradient><path fill="url(#SVGID_19_)" d="M228.3 98.3c-3.7-6.7-10.9-10.6-12.8-20l12.3 7.2 4.2-6.6c3.7 8.6 2.6 14.6-3.7 19.4z"/><linearGradient id="SVGID_20_" x1="46" x2="46" y1="117.4" y2="97.4" gradientUnits="userSpaceOnUse"><stop offset="0" stop-color="#09498a"/><stop offset="1" stop-color="#6088b1"/></linearGradient><path fill="url(#SVGID_20_)" d="M37.2 99l8.9 6.1 8.3-7.7c1 5.2-.3 8.4-8 20-5-4.9-8.4-10.4-9.2-18.4z"/><linearGradient id="SVGID_21_" x1="62.2" x2="62.2" y1="70" y2="50.4" gradientUnits="userSpaceOnUse"><stop offset="0" stop-color="#09498a"/><stop offset="1" stop-color="#6088b1"/></linearGradient><path fill="url(#SVGID_21_)" d="M71.2 59.9c-3.6 6.9-10.3 7.5-16.5 10.1a19.4 19.4 0 0 1 2.2-19.6l3.3 10.4 11-.9z"/><linearGradient id="SVGID_22_" x1="227.1" x2="227.1" y1="130.2" y2="110" gradientUnits="userSpaceOnUse"><stop offset="0" stop-color="#09498a"/><stop offset="1" stop-color="#6088b1"/></linearGradient><path fill="url(#SVGID_22_)" d="M227.8 121l7.9-9.8c1.4 8.2-3.9 13.7-11 19a29.5 29.5 0 0 1-6.4-20.2l9.5 11z"/><linearGradient id="SVGID_23_" x1="210.2" x2="210.2" y1="64.6" y2="46.3" gradientUnits="userSpaceOnUse"><stop offset="0" stop-color="#09498a"/><stop offset="1" stop-color="#6088b1"/></linearGradient><path fill="url(#SVGID_23_)" d="M200.3 57.2l12.5.8 3.2-10.7c.6-.7.5-1 1.1-1 2.3 4.4 2.5 9.7 2.8 14.2.2 3.1-1.1 4.8-5 3.8-4.6-1.1-9.8-.3-13.2-4.7l-1.4-2.4z"/><linearGradient id="SVGID_24_" x1="196.6" x2="196.6" y1="44.7" y2="28.7" gradientUnits="userSpaceOnUse"><stop offset="0" stop-color="#09498a"/><stop offset="1" stop-color="#6088b1"/></linearGradient><path fill="url(#SVGID_24_)" d="M202.5 44.7c-7.4-1-12.2-7.4-11.9-16 6.9.9 12.6 8.5 11.9 16z"/><linearGradient id="SVGID_25_" x1="77.6" x2="77.6" y1="46.1" y2="28.8" gradientUnits="userSpaceOnUse"><stop offset="0" stop-color="#09498a"/><stop offset="1" stop-color="#6088b1"/></linearGradient><path fill="url(#SVGID_25_)" d="M84 28.8c-3.4 6.6-4.1 14.6-12.6 17.4-1.2-8.8 3.2-14.8 12.6-17.4z"/><g><path d="M196.4 87.3c-3.1-7.9-7.8-15-13.7-20.9a99.4 99.4 0 0 1 7.7 28.4 19 19 0 0 1 6-7.5zM196.9 88.7c-2.9 2.1-5 4.6-6.4 7.3a132.6 132.6 0 0 1-.2 32.8c1.1 2.2 2.7 4.3 4.8 6.1a59.6 59.6 0 0 0 1.8-46.2zM185.6 149.5c3.5-4 6.5-8.6 8.9-13.4a19 19 0 0 1-4.4-6.3c-1 7.1-2.5 13.8-4.5 19.7zM85.3 136.4c2.4 4.9 5.5 9.5 9.1 13.5-2.1-5.9-3.6-12.5-4.7-19.7-.9 2.2-2.4 4.3-4.4 6.2zM89.6 129.2a141.7 141.7 0 0 1-.1-33.6c-1.5-2.6-3.7-5-6.6-7.1a59.4 59.4 0 0 0 1.9 46.7c2.1-1.9 3.7-3.9 4.8-6zM176 60.7a60.3 60.3 0 0 0-73.2.8 119 119 0 0 1 37.7-5.8c13.1 0 25.3 1.8 35.5 5z" class="st25"/><path d="M139.3 82a92 92 0 0 1 49 12.3 94.9 94.9 0 0 0-8.9-30.4 116.7 116.7 0 0 0-38.9-6.2c-15.2 0-29.1 2.5-40.2 6.7-4 7.8-6.9 17.8-8.5 29A93.3 93.3 0 0 1 139.3 82zM89.6 94.4a95.5 95.5 0 0 1 7.8-28.3 62 62 0 0 0-14 20.9c2.8 2.2 4.9 4.7 6.2 7.4zM104 158.5a60.2 60.2 0 0 0 72.4-.5 121.2 121.2 0 0 1-36.8 5.5c-13.3.1-25.4-1.8-35.6-5z" class="st25"/><path d="M144.9 140.7c.5 3.1 2.1 5.3 2.1 5.3h-1.6a14 14 0 0 1-2-5.3h-3v5.3h-1.3v-5.3l-3.3-.1c-.2 1.6-.9 3.4-2 5.4h-1.6s1.6-2.4 2.1-5.5a85.6 85.6 0 0 1-42.6-12.6l-.3-.8a99.9 99.9 0 0 0 6.3 26.1l1.9 1.8a116 116 0 0 0 39.8 6.5c15.6 0 29.9-2.6 41.1-7l1.7-1.6c2.7-6.8 4.7-14.7 5.9-23.4a91.4 91.4 0 0 1-43.2 11.2z" class="st25"/><radialGradient id="SVGID_26_" cx="139.9" cy="111.4" r="39.9" gradientUnits="userSpaceOnUse"><stop offset="0" stop-color="#6088b1"/><stop offset="1" stop-color="#09498a"/></radialGradient><path fill="url(#SVGID_26_)" d="M188.5 127.3a131 131 0 0 0 0-30.7 91.6 91.6 0 0 0-49.2-12.5 93 93 0 0 0-47.8 11.6 137.8 137.8 0 0 0-.2 29.9 85 85 0 0 0 43.2 13c-.1-1.5-.4-3-1.4-4.6l.8-.6s2 1.8 2.2 5.3l3.1.1v-5.4h1.3v5.4h2.8c.1-3.6 2.2-5.4 2.2-5.4l.8.6a9.7 9.7 0 0 0-1.4 4.7 92.2 92.2 0 0 0 43.6-11.4z"/></g><g><path d="M76.7 233.3l7.8 7.8c1.3 1.3 2.4 2.2 3.3 2.6a7 7 0 0 0 2.7.8v.6h-10v-.6c.6 0 1-.1 1.3-.3s.4-.4.4-.7l-.1-.7a4 4 0 0 0-1-1.1l-7.3-7.2v6.8c0 1.1.1 1.8.2 2.1.1.3.3.5.7.7.4.3.9.4 1.4.4h.7v.6h-9v-.6h.8c.9 0 1.5-.3 1.9-.8.3-.3.4-1.1.4-2.4v-13.7c0-1.1-.1-1.8-.2-2.1-.1-.3-.3-.5-.6-.7-.5-.3-.9-.4-1.4-.4h-.8v-.6h9v.6H76c-.5 0-1 .1-1.4.4-.3.2-.5.4-.7.8-.1.3-.2 1-.2 2.1v6.5l2.1-2c3.1-2.8 5-4.7 5.6-5.7.3-.4.4-.8.4-1.1 0-.2-.1-.5-.3-.6-.2-.2-.6-.3-1.1-.3H80v-.6h7.8v.6l-1.3.2-1.4.7-2 1.6-3.2 3.2-3.2 3.1zM106.7 223.8h5.8l13 15.9v-12.2c0-1.3-.1-2.1-.4-2.4-.4-.4-1-.7-1.8-.7h-.7v-.6h7.4v.6h-.8c-.9 0-1.5.3-1.9.8-.2.3-.3 1.1-.3 2.3v17.9h-.6l-14-17.1v13c0 1.3.1 2.1.4 2.4.4.4 1 .7 1.8.7h.8v.6H108v-.6h.7c.9 0 1.5-.3 1.9-.8.2-.3.3-1.1.3-2.3v-14.7a8.8 8.8 0 0 0-1.4-1.4l-1.4-.6-1.4-.1v-.7zM146.7 223.8h5.8l13 15.9v-12.2c0-1.3-.1-2.1-.4-2.4-.4-.4-1-.7-1.8-.7h-.7v-.6h7.4v.6h-1c-.9 0-1.5.3-1.9.8-.2.3-.3 1.1-.3 2.3v17.9h-.6l-14-17.1v13c0 1.3.1 2.1.4 2.4.4.4 1 .7 1.8.7h.8v.6h-7.4v-.6h.7c.9 0 1.5-.3 1.9-.8.2-.3.3-1.1.3-2.3v-14.7a8.8 8.8 0 0 0-1.4-1.4l-1.4-.6-1.4-.1v-.7zM205.4 239.1l.5.1-1.8 5.8h-16.4v-.6h.8c.9 0 1.5-.3 1.9-.9.2-.3.3-1.1.3-2.3v-13.7c0-1.3-.1-2.2-.4-2.5-.4-.5-1-.7-1.8-.7h-.8v-.6h9.6v.6c-1.1 0-1.9.1-2.4.3s-.8.5-.9.8c-.2.3-.3 1.1-.3 2.4v13.3c0 .9.1 1.5.3 1.8.1.2.3.4.6.5.3.1 1.1.2 2.4.2h1.5a9 9 0 0 0 3.4-.4c.7-.2 1.3-.7 1.8-1.3.7-.5 1.2-1.4 1.7-2.8z" class="st25"/></g></svg>