<?xml version="1.0" standalone="no"?>
<!DOCTYPE svg PUBLIC "-//W3C//DTD SVG 20010904//EN"
 "http://www.w3.org/TR/2001/REC-SVG-20010904/DTD/svg10.dtd">
<svg version="1.0" xmlns="http://www.w3.org/2000/svg"
 width="600.000000pt" height="600.000000pt" viewBox="0 0 600.000000 600.000000"
 preserveAspectRatio="xMidYMid meet">
<metadata>
Created by potrace 1.11, written by Peter Selinger 2001-2013
</metadata>
<g transform="translate(0.000000,600.000000) scale(0.100000,-0.100000)"
fill="#000000" stroke="none">
<path d="M1682 5295 c-111 -56 -168 -137 -176 -248 -5 -75 4 -87 46 -63 90 51
116 92 215 334 8 19 -9 15 -85 -23z"/>
<path d="M4028 5325 c-10 -10 12 -127 32 -165 42 -83 119 -145 193 -157 l29
-5 -6 56 c-8 74 -41 141 -97 198 -55 55 -132 92 -151 73z"/>
<path d="M4335 5075 l-18 -135 -26 6 c-14 4 -61 15 -105 26 -43 10 -81 17 -84
14 -9 -10 30 -98 59 -131 29 -33 80 -62 122 -71 110 -21 157 -12 183 38 20 39
17 146 -7 215 -17 50 -78 155 -97 167 -5 3 -17 -52 -27 -129z"/>
<path d="M1362 5108 c-16 -35 -35 -89 -42 -122 -12 -60 -15 -186 -4 -241 l6
-33 83 19 c90 19 175 55 216 92 41 37 100 131 72 114 -5 -3 -30 -8 -58 -11
-27 -4 -61 -8 -75 -11 -94 -17 -87 -20 -101 38 -7 28 -14 54 -14 57 -11 58
-41 160 -46 160 -4 0 -21 -28 -37 -62z"/>
<path d="M4562 4933 c-6 -16 -23 -70 -38 -120 -24 -82 -32 -96 -54 -95 -3 0
-56 3 -117 7 -78 5 -113 3 -113 -4 0 -6 16 -29 36 -50 47 -53 99 -70 274 -87
93 -10 105 13 88 174 -10 107 -38 202 -58 202 -4 0 -12 -12 -18 -27z"/>
<path d="M2828 4905 c-1 -1 -25 -6 -53 -9 -27 -4 -57 -9 -65 -11 -8 -2 -29 -7
-45 -9 -50 -9 -175 -51 -249 -85 -67 -31 -236 -135 -236 -146 0 -3 8 -2 18 4
15 8 192 54 252 66 311 60 669 64 980 10 125 -22 212 -42 265 -61 48 -17 -89
71 -180 116 -175 86 -364 128 -572 128 -61 1 -113 -1 -115 -3z"/>
<path d="M1162 4805 c-39 -78 -50 -170 -32 -254 19 -88 19 -89 87 -67 72 24
191 80 218 103 30 27 65 74 60 82 -2 4 -30 4 -62 1 -32 -4 -82 -6 -112 -6
l-54 1 -31 103 c-16 56 -33 102 -37 102 -3 0 -20 -29 -37 -65z"/>
<path d="M3028 4726 c-1 -2 -79 -6 -173 -9 -93 -4 -181 -9 -195 -11 -14 -3
-47 -8 -75 -11 -80 -9 -242 -45 -355 -79 l-105 -31 -27 -50 c-28 -52 -103
-269 -113 -325 -3 -19 -7 -36 -9 -39 -2 -3 -7 -28 -10 -55 -4 -27 -9 -52 -11
-56 -2 -3 -6 -25 -10 -48 l-6 -42 53 28 c191 102 439 172 713 200 91 9 389 8
485 -1 284 -29 577 -117 757 -228 l33 -21 -6 34 c-39 215 -76 355 -129 487
-50 123 -51 124 -152 153 -168 50 -344 80 -548 93 -49 4 -95 8 -102 10 -6 2
-13 2 -15 1z"/>
<path d="M4715 4595 c-20 -58 -41 -105 -45 -105 -4 0 -52 9 -105 20 -122 25
-119 25 -110 -7 17 -68 77 -126 195 -188 47 -25 93 -51 102 -58 24 -16 43 4
68 76 24 67 25 119 5 197 -13 51 -62 170 -69 170 -2 0 -20 -47 -41 -105z"/>
<path d="M978 4543 c-42 -146 -34 -288 19 -370 l15 -22 41 21 c69 34 164 106
201 151 29 36 66 103 66 121 0 2 -42 -7 -92 -20 -51 -13 -98 -24 -103 -24 -6
0 -17 15 -24 33 -42 95 -91 197 -94 197 -2 0 -16 -39 -29 -87z"/>
<path d="M2004 4488 c-81 -88 -173 -227 -218 -330 l-24 -54 44 -43 c24 -23 51
-55 61 -72 21 -36 28 -37 31 -4 4 54 52 264 78 345 15 47 28 87 29 90 1 3 7
19 14 35 23 54 31 75 27 75 -1 0 -20 -19 -42 -42z"/>
<path d="M3886 4469 c15 -35 30 -73 35 -84 14 -34 56 -196 74 -285 9 -47 20
-101 24 -120 8 -35 8 -35 18 -10 6 14 33 49 61 78 l50 53 -20 47 c-49 112
-167 290 -237 356 l-31 30 26 -65z"/>
<path d="M4564 4242 c30 -84 71 -147 166 -252 17 -19 45 -54 62 -77 17 -24 34
-43 38 -43 3 0 18 12 32 28 86 94 103 180 60 317 l-18 60 -42 -64 c-24 -36
-44 -67 -47 -69 -2 -3 -60 27 -128 67 -68 39 -127 71 -130 71 -3 0 0 -17 7
-38z"/>
<path d="M864 4218 c-4 -6 -9 -44 -10 -85 -4 -105 29 -208 92 -283 l28 -32 53
58 c143 156 178 207 203 295 9 30 -5 40 -25 20 -6 -5 -55 -32 -109 -61 l-99
-53 -24 29 c-13 16 -38 50 -56 76 -34 50 -41 55 -53 36z"/>
<path d="M2827 4164 c-1 -1 -39 -4 -85 -8 -277 -21 -561 -98 -749 -202 -52
-29 -63 -40 -64 -62 0 -15 -3 -58 -6 -97 -9 -100 -8 -326 0 -424 9 -97 2 -89
137 -159 144 -75 282 -122 461 -157 41 -8 83 -16 94 -19 11 -2 56 -7 100 -11
44 -4 90 -8 103 -10 27 -4 29 16 7 69 -8 20 -12 36 -8 36 18 -1 32 -18 46 -60
13 -39 19 -45 46 -48 l31 -3 0 60 c0 50 3 59 15 55 11 -5 15 -21 15 -60 0 -53
0 -54 30 -54 24 0 30 4 30 23 0 26 35 87 50 87 13 0 13 -6 0 -29 -5 -10 -12
-33 -15 -50 l-6 -32 68 5 c187 16 290 33 428 67 153 39 402 140 421 171 30 48
32 626 2 653 -24 22 -190 103 -279 136 -83 30 -293 83 -374 95 -27 3 -57 8
-65 9 -58 10 -424 26 -433 19z"/>
<path d="M1743 4047 c-16 -34 -52 -183 -62 -257 -5 -36 -7 -123 -5 -195 3
-126 5 -153 18 -212 4 -15 8 -39 11 -53 7 -37 41 -139 65 -194 l21 -49 30 29
c59 56 71 87 64 156 -12 104 -13 509 -3 571 13 75 8 93 -49 152 -71 76 -78 79
-90 52z"/>
<path d="M4104 4018 c-46 -48 -86 -103 -79 -109 6 -7 18 -241 18 -344 0 -93
-10 -256 -19 -312 -3 -21 1 -42 12 -60 21 -33 75 -93 84 -93 19 0 90 229 106
340 12 83 10 294 -2 375 -17 100 -56 237 -69 242 -6 2 -29 -16 -51 -39z"/>
<path d="M4654 3858 c6 -127 45 -229 138 -360 l16 -23 38 40 c88 95 137 207
133 307 -1 29 -4 59 -7 66 -2 6 -33 -26 -68 -73 l-65 -85 -57 67 c-31 38 -69
82 -84 98 -15 17 -28 33 -28 38 0 4 -4 7 -10 7 -6 0 -8 -33 -6 -82z"/>
<path d="M1100 3838 c-25 -22 -64 -57 -86 -78 l-41 -39 -86 60 c-47 32 -88 59
-92 59 -10 0 1 -68 20 -125 24 -71 69 -147 120 -202 53 -56 44 -62 131 83 74
124 103 217 85 266 -5 14 -13 10 -51 -24z"/>
<path d="M4614 3535 c6 -89 31 -171 77 -254 51 -92 55 -94 92 -63 74 62 144
140 165 184 26 52 41 131 32 166 -5 23 -7 22 -37 -20 -17 -23 -45 -59 -61 -78
-17 -19 -39 -46 -51 -60 -14 -17 -23 -21 -28 -14 -11 15 -119 139 -161 184
l-34 35 6 -80z"/>
<path d="M1137 3548 c-14 -18 -48 -63 -74 -100 l-48 -66 -100 74 c-55 40 -103
74 -106 74 -11 0 3 -84 23 -140 17 -46 38 -73 125 -157 58 -57 109 -101 113
-98 4 3 10 18 13 33 3 16 20 60 38 98 71 155 90 236 68 292 -11 30 -22 28 -52
-10z"/>
<path d="M4560 3259 c-25 -105 15 -319 63 -335 39 -14 49 -13 103 7 100 38
163 126 180 252 l7 49 -91 -56 c-49 -31 -95 -56 -100 -56 -6 0 -39 41 -73 90
-34 50 -65 92 -69 95 -4 3 -14 -18 -20 -46z"/>
<path d="M1182 3160 l-51 -111 -43 21 c-24 12 -68 34 -98 49 -94 46 -91 46
-84 -2 17 -107 70 -167 215 -242 l88 -46 19 38 c57 113 72 269 34 356 -12 26
-23 47 -25 47 -1 0 -26 -50 -55 -110z"/>
<path d="M1936 3208 c3 -18 12 -67 19 -108 8 -41 16 -86 18 -100 15 -86 73
-257 100 -298 18 -26 37 -37 98 -56 133 -43 273 -75 399 -91 19 -3 55 -7 80
-11 79 -10 472 -13 545 -4 39 5 93 12 120 15 90 10 288 54 389 86 131 41 145
55 190 200 47 155 89 367 70 357 -201 -98 -278 -127 -439 -166 -95 -24 -116
-27 -257 -46 -18 -3 -71 -8 -118 -12 -47 -3 -87 -8 -88 -9 -2 -2 6 -25 17 -51
12 -26 19 -49 17 -52 -14 -13 -37 12 -53 57 -15 44 -21 51 -44 51 -31 0 -35
-8 -34 -67 0 -29 -4 -43 -12 -43 -9 0 -13 17 -13 56 l0 55 -37 -3 c-23 -2 -37
-8 -38 -18 -6 -36 -35 -90 -49 -90 -19 0 -20 -5 4 58 11 28 19 52 17 53 -11 3
-45 7 -116 13 -47 4 -119 14 -160 23 -42 8 -87 17 -101 19 -129 24 -337 104
-467 179 l-63 36 6 -33z"/>
<path d="M1877 3157 c-11 -19 -32 -49 -48 -67 l-29 -32 46 -77 c52 -89 149
-216 141 -186 -3 11 -15 54 -27 95 -22 78 -35 132 -54 238 l-11 63 -18 -34z"/>
<path d="M4001 3116 c-6 -41 -14 -87 -17 -103 -7 -37 -40 -162 -54 -199 l-10
-29 26 30 c36 43 96 131 132 195 l31 56 -29 34 c-17 19 -36 47 -43 63 -6 15
-14 27 -17 27 -4 0 -12 -33 -19 -74z"/>
<path d="M4471 3044 c-32 -71 -45 -205 -28 -284 2 -8 9 -45 17 -82 7 -38 17
-68 21 -68 18 0 175 72 219 100 55 35 111 93 135 139 19 38 17 38 -97 12 -137
-32 -158 -34 -164 -13 -11 31 -86 222 -88 222 -2 0 -8 -12 -15 -26z"/>
<path d="M1332 2967 c-18 -38 -32 -70 -32 -73 0 -7 -43 -98 -52 -110 -6 -8
-32 -6 -92 7 -46 10 -103 21 -126 24 l-42 6 23 -41 c23 -41 60 -78 115 -118
38 -26 165 -78 216 -87 l37 -7 -3 44 c-2 24 4 88 14 143 20 115 17 180 -8 239
l-19 41 -31 -68z"/>
<path d="M4318 2774 c-24 -38 -49 -89 -63 -129 -17 -51 -63 -281 -57 -287 13
-13 87 -25 137 -22 69 4 131 33 184 85 38 38 86 117 77 126 -2 2 -43 -3 -92
-11 -81 -13 -90 -13 -101 2 -7 9 -14 26 -14 39 -1 13 -2 26 -3 31 -1 4 -8 45
-15 92 -18 116 -23 122 -53 74z"/>
<path d="M1486 2719 c-4 -12 -12 -58 -22 -129 -15 -103 -20 -112 -69 -105 -16
2 -66 7 -110 10 l-80 7 20 -24 c102 -121 200 -170 374 -185 60 -5 64 -5 57 13
-4 10 -23 78 -41 151 -35 134 -73 229 -106 259 -15 14 -19 14 -23 3z"/>
<path d="M3655 2584 c-79 -23 -268 -62 -332 -70 -32 -3 -67 -9 -78 -11 -11 -3
-130 -7 -265 -8 -296 -4 -492 17 -695 74 -38 11 -71 18 -73 16 -5 -4 135 -87
192 -114 180 -83 358 -123 551 -121 129 0 184 6 310 34 101 21 276 98 390 171
76 48 76 51 0 29z"/>
<path d="M4067 2487 c-34 -37 -83 -126 -120 -217 -25 -60 -49 -141 -44 -146 9
-10 105 -20 158 -18 108 6 204 39 299 102 53 35 53 36 28 43 -14 4 -52 9 -85
13 -143 14 -164 34 -178 176 -10 92 -14 95 -58 47z"/>
<path d="M1694 2458 c3 -24 8 -70 11 -103 3 -33 8 -75 10 -92 4 -29 2 -33 -18
-34 -12 0 -31 -2 -42 -4 -11 -2 -42 -7 -70 -10 -115 -12 -145 -18 -145 -27 0
-6 17 -26 37 -45 58 -52 153 -77 262 -70 47 4 107 12 132 19 l47 13 -47 140
c-57 172 -108 255 -159 255 -23 0 -24 -2 -18 -42z"/>
<path d="M1933 2323 c3 -5 9 -33 12 -63 4 -30 8 -66 10 -80 16 -102 17 -160 4
-161 -8 0 -21 -2 -29 -4 -8 -2 -24 -6 -35 -9 -78 -18 -201 -50 -204 -52 -15
-13 74 -69 128 -82 30 -7 157 -7 186 0 54 13 107 30 149 49 38 16 45 23 37 37
-5 9 -25 52 -45 94 -45 98 -92 172 -142 221 -37 37 -83 69 -71 50z"/>
<path d="M3785 2256 c-64 -65 -120 -162 -149 -259 l-15 -49 54 -24 c102 -47
211 -59 303 -35 41 12 112 65 112 85 0 8 -28 18 -72 26 -40 8 -76 15 -80 16
-5 1 -15 2 -24 3 -8 0 -28 14 -44 30 -24 23 -29 36 -26 67 4 42 16 145 21 182
6 36 -13 26 -80 -42z"/>
<path d="M3590 2173 c-63 -26 -110 -65 -145 -121 -100 -160 -225 -231 -436
-248 -150 -12 -198 -9 -289 20 -47 14 -101 32 -120 38 -65 20 -156 96 -244
202 -39 48 -126 106 -160 106 -21 0 -22 8 28 -158 l34 -112 -135 -66 c-97 -48
-132 -69 -122 -75 32 -21 145 -49 194 -49 44 0 68 8 138 45 122 64 170 65 366
3 l74 -24 -119 -43 c-65 -24 -123 -47 -128 -52 -12 -10 33 -97 53 -102 9 -2
77 27 151 65 179 92 236 95 370 19 30 -17 84 -40 119 -52 l64 -21 33 36 c42
46 39 48 -109 111 l-116 49 37 16 c110 48 191 55 282 22 119 -44 172 -54 240
-49 66 5 199 53 183 67 -4 4 -75 28 -156 54 -125 40 -147 51 -142 64 4 10 22
58 41 107 19 50 39 100 45 111 6 12 9 28 7 36 -3 13 -8 13 -38 1z"/>
<path d="M1440 1208 c0 -5 9 -8 20 -8 10 0 23 -8 29 -17 12 -23 12 -363 0
-385 -6 -10 -21 -18 -36 -18 -14 0 -23 -3 -19 -7 10 -10 186 -11 186 -1 0 5
-8 8 -19 8 -34 0 -42 24 -39 115 l3 87 81 -78 c90 -88 103 -110 73 -119 -42
-14 -14 -20 86 -20 105 0 132 7 74 20 -21 5 -68 43 -146 118 l-115 111 91 87
c58 56 103 90 122 94 17 4 28 9 25 12 -5 5 -102 7 -151 3 -19 -1 -18 -2 3 -10
12 -5 22 -15 22 -21 0 -6 -37 -49 -82 -96 -92 -94 -94 -94 -92 17 2 70 14 100
40 100 7 0 15 4 18 8 3 5 -35 8 -85 8 -49 -1 -89 -4 -89 -8z"/>
<path d="M2254 1209 c-2 -4 9 -9 24 -12 15 -3 36 -14 47 -24 19 -18 20 -31 18
-179 -1 -87 -2 -168 -2 -180 -1 -15 -11 -24 -33 -32 -28 -9 -21 -10 52 -10 69
0 79 2 53 9 -38 11 -36 -2 -37 197 -1 129 0 140 14 123 75 -93 189 -231 208
-251 12 -14 33 -40 45 -57 12 -18 26 -31 31 -30 6 2 9 88 9 203 0 197 5 234
32 234 7 0 16 4 19 8 6 10 -130 9 -140 -1 -4 -4 2 -7 13 -7 39 0 44 -20 41
-170 l-3 -142 -125 152 c-69 84 -128 158 -132 164 -7 11 -127 16 -134 5z"/>
<path d="M3090 1214 c0 -2 20 -12 45 -23 28 -12 45 -27 46 -38 0 -10 1 -91 1
-180 1 -171 -3 -188 -45 -196 -12 -2 16 -4 63 -5 69 0 79 2 53 9 -38 11 -35
-3 -37 191 0 76 2 137 5 135 4 -1 69 -78 145 -171 77 -93 143 -170 149 -170 6
-1 10 75 10 206 0 215 2 228 43 231 11 0 19 4 17 7 -6 9 -132 6 -141 -3 -4 -4
2 -7 14 -7 11 0 24 -6 29 -12 13 -21 11 -310 -3 -295 -6 6 -58 70 -115 141
-57 71 -113 140 -125 154 -19 23 -29 26 -88 27 -36 1 -66 0 -66 -1z"/>
<path d="M3975 1212 c3 -4 10 -7 13 -8 39 -5 40 -10 41 -202 1 -103 -3 -193
-7 -200 -5 -7 -22 -17 -38 -22 -19 -5 32 -9 151 -9 l180 -1 17 57 c18 62 16
82 -3 39 -21 -46 -70 -68 -151 -67 -39 0 -74 3 -77 7 -10 10 -10 357 0 376 5
10 21 18 34 18 13 0 26 4 29 8 2 4 -41 9 -96 10 -55 1 -97 -2 -93 -6z"/>
</g>
</svg>
